<?xml version="1.0" encoding="utf-8" standalone="no"?>
<!DOCTYPE svg PUBLIC "-//W3C//DTD SVG 1.1//EN"
  "http://www.w3.org/Graphics/SVG/1.1/DTD/svg11.dtd">
<svg xmlns:xlink="http://www.w3.org/1999/xlink" width="712.739687pt" height="496.042031pt" viewBox="0 0 712.739687 496.042031" xmlns="http://www.w3.org/2000/svg" version="1.1">
 <metadata>
  <rdf:RDF xmlns:dc="http://purl.org/dc/elements/1.1/" xmlns:cc="http://creativecommons.org/ns#" xmlns:rdf="http://www.w3.org/1999/02/22-rdf-syntax-ns#">
   <cc:Work>
    <dc:type rdf:resource="http://purl.org/dc/dcmitype/StillImage"/>
    <dc:date>2026-02-21T12:37:57.652228</dc:date>
    <dc:format>image/svg+xml</dc:format>
    <dc:creator>
     <cc:Agent>
      <dc:title>Matplotlib v3.10.8, https://matplotlib.org/</dc:title>
     </cc:Agent>
    </dc:creator>
   </cc:Work>
  </rdf:RDF>
 </metadata>
 <defs>
  <style type="text/css">*{stroke-linejoin: round; stroke-linecap: butt}</style>
 </defs>
 <g id="figure_1">
  <g id="patch_1">
   <path d="M -0 496.042031 
L 712.739687 496.042031 
L 712.739687 0 
L -0 0 
z
" style="fill: #ffffff"/>
  </g>
  <g id="axes_1">
   <g id="patch_2">
    <path d="M 68.229687 457.517969 
L 705.539688 457.517969 
L 705.539688 23.077969 
L 68.229687 23.077969 
z
" style="fill: #ffffff"/>
   </g>
   <g id="patch_3">
    <path d="M 68.229687 437.770696 
L 675.191592 437.770696 
L 675.191592 405.530251 
L 68.229687 405.530251 
z
" clip-path="url(#p3047032881)" style="fill: #482173; stroke: #000000; stroke-width: 1.5; stroke-linejoin: miter"/>
   </g>
   <g id="patch_4">
    <path d="M 68.229687 397.470139 
L 675.191592 397.470139 
L 675.191592 365.229694 
L 68.229687 365.229694 
z
" clip-path="url(#p3047032881)" style="fill: #433e85; stroke: #000000; stroke-width: 1.5; stroke-linejoin: miter"/>
   </g>
   <g id="patch_5">
    <path d="M 68.229687 357.169583 
L 279.875722 357.169583 
L 279.875722 324.929138 
L 68.229687 324.929138 
z
" clip-path="url(#p3047032881)" style="fill: #38588c; stroke: #000000; stroke-width: 1.5; stroke-linejoin: miter"/>
   </g>
   <g id="patch_6">
    <path d="M 68.229687 316.869026 
L 279.875722 316.869026 
L 279.875722 284.628581 
L 68.229687 284.628581 
z
" clip-path="url(#p3047032881)" style="fill: #2d708e; stroke: #000000; stroke-width: 1.5; stroke-linejoin: miter"/>
   </g>
   <g id="patch_7">
    <path d="M 68.229687 276.56847 
L 247.642275 276.56847 
L 247.642275 244.328024 
L 68.229687 244.328024 
z
" clip-path="url(#p3047032881)" style="fill: #25858e; stroke: #000000; stroke-width: 1.5; stroke-linejoin: miter"/>
   </g>
   <g id="patch_8">
    <path d="M 68.229687 236.267913 
L 247.642275 236.267913 
L 247.642275 204.027468 
L 68.229687 204.027468 
z
" clip-path="url(#p3047032881)" style="fill: #1e9b8a; stroke: #000000; stroke-width: 1.5; stroke-linejoin: miter"/>
   </g>
   <g id="patch_9">
    <path d="M 68.229687 195.967357 
L 187.432627 195.967357 
L 187.432627 163.726911 
L 68.229687 163.726911 
z
" clip-path="url(#p3047032881)" style="fill: #2ab07f; stroke: #000000; stroke-width: 1.5; stroke-linejoin: miter"/>
   </g>
   <g id="patch_10">
    <path d="M 68.229687 155.6668 
L 187.432627 155.6668 
L 187.432627 123.426355 
L 68.229687 123.426355 
z
" clip-path="url(#p3047032881)" style="fill: #52c569; stroke: #000000; stroke-width: 1.5; stroke-linejoin: miter"/>
   </g>
   <g id="patch_11">
    <path d="M 68.229687 115.366243 
L 185.608092 115.366243 
L 185.608092 83.125798 
L 68.229687 83.125798 
z
" clip-path="url(#p3047032881)" style="fill: #86d549; stroke: #000000; stroke-width: 1.5; stroke-linejoin: miter"/>
   </g>
   <g id="patch_12">
    <path d="M 68.229687 75.065687 
L 185.608092 75.065687 
L 185.608092 42.825241 
L 68.229687 42.825241 
z
" clip-path="url(#p3047032881)" style="fill: #c2df23; stroke: #000000; stroke-width: 1.5; stroke-linejoin: miter"/>
   </g>
   <g id="matplotlib.axis_1">
    <g id="xtick_1">
     <g id="line2d_1">
      <path d="M 68.229687 457.517969 
L 68.229687 23.077969 
" clip-path="url(#p3047032881)" style="fill: none; stroke: #b0b0b0; stroke-opacity: 0.3; stroke-width: 0.8; stroke-linecap: square"/>
     </g>
     <g id="line2d_2">
      <defs>
       <path id="m65dda71f85" d="M 0 0 
L 0 3.5 
" style="stroke: #000000; stroke-width: 0.8"/>
      </defs>
      <g>
       <use xlink:href="#m65dda71f85" x="68.229687" y="457.517969" style="stroke: #000000; stroke-width: 0.8"/>
      </g>
     </g>
     <g id="text_1">
      <!-- 0 -->
      <g transform="translate(65.048437 472.116406) scale(0.1 -0.1)">
       <defs>
        <path id="DejaVuSans-30" d="M 2034 4250 
Q 1547 4250 1301 3770 
Q 1056 3291 1056 2328 
Q 1056 1369 1301 889 
Q 1547 409 2034 409 
Q 2525 409 2770 889 
Q 3016 1369 3016 2328 
Q 3016 3291 2770 3770 
Q 2525 4250 2034 4250 
z
M 2034 4750 
Q 2819 4750 3233 4129 
Q 3647 3509 3647 2328 
Q 3647 1150 3233 529 
Q 2819 -91 2034 -91 
Q 1250 -91 836 529 
Q 422 1150 422 2328 
Q 422 3509 836 4129 
Q 1250 4750 2034 4750 
z
" transform="scale(0.015625)"/>
       </defs>
       <use xlink:href="#DejaVuSans-30"/>
      </g>
     </g>
    </g>
    <g id="xtick_2">
     <g id="line2d_3">
      <path d="M 189.86534 457.517969 
L 189.86534 23.077969 
" clip-path="url(#p3047032881)" style="fill: none; stroke: #b0b0b0; stroke-opacity: 0.3; stroke-width: 0.8; stroke-linecap: square"/>
     </g>
     <g id="line2d_4">
      <g>
       <use xlink:href="#m65dda71f85" x="189.86534" y="457.517969" style="stroke: #000000; stroke-width: 0.8"/>
      </g>
     </g>
     <g id="text_2">
      <!-- 200 -->
      <g transform="translate(180.32159 472.116406) scale(0.1 -0.1)">
       <defs>
        <path id="DejaVuSans-32" d="M 1228 531 
L 3431 531 
L 3431 0 
L 469 0 
L 469 531 
Q 828 903 1448 1529 
Q 2069 2156 2228 2338 
Q 2531 2678 2651 2914 
Q 2772 3150 2772 3378 
Q 2772 3750 2511 3984 
Q 2250 4219 1831 4219 
Q 1534 4219 1204 4116 
Q 875 4013 500 3803 
L 500 4441 
Q 881 4594 1212 4672 
Q 1544 4750 1819 4750 
Q 2544 4750 2975 4387 
Q 3406 4025 3406 3419 
Q 3406 3131 3298 2873 
Q 3191 2616 2906 2266 
Q 2828 2175 2409 1742 
Q 1991 1309 1228 531 
z
" transform="scale(0.015625)"/>
       </defs>
       <use xlink:href="#DejaVuSans-32"/>
       <use xlink:href="#DejaVuSans-30" transform="translate(63.623047 0)"/>
       <use xlink:href="#DejaVuSans-30" transform="translate(127.246094 0)"/>
      </g>
     </g>
    </g>
    <g id="xtick_3">
     <g id="line2d_5">
      <path d="M 311.500992 457.517969 
L 311.500992 23.077969 
" clip-path="url(#p3047032881)" style="fill: none; stroke: #b0b0b0; stroke-opacity: 0.3; stroke-width: 0.8; stroke-linecap: square"/>
     </g>
     <g id="line2d_6">
      <g>
       <use xlink:href="#m65dda71f85" x="311.500992" y="457.517969" style="stroke: #000000; stroke-width: 0.8"/>
      </g>
     </g>
     <g id="text_3">
      <!-- 400 -->
      <g transform="translate(301.957242 472.116406) scale(0.1 -0.1)">
       <defs>
        <path id="DejaVuSans-34" d="M 2419 4116 
L 825 1625 
L 2419 1625 
L 2419 4116 
z
M 2253 4666 
L 3047 4666 
L 3047 1625 
L 3713 1625 
L 3713 1100 
L 3047 1100 
L 3047 0 
L 2419 0 
L 2419 1100 
L 313 1100 
L 313 1709 
L 2253 4666 
z
" transform="scale(0.015625)"/>
       </defs>
       <use xlink:href="#DejaVuSans-34"/>
       <use xlink:href="#DejaVuSans-30" transform="translate(63.623047 0)"/>
       <use xlink:href="#DejaVuSans-30" transform="translate(127.246094 0)"/>
      </g>
     </g>
    </g>
    <g id="xtick_4">
     <g id="line2d_7">
      <path d="M 433.136644 457.517969 
L 433.136644 23.077969 
" clip-path="url(#p3047032881)" style="fill: none; stroke: #b0b0b0; stroke-opacity: 0.3; stroke-width: 0.8; stroke-linecap: square"/>
     </g>
     <g id="line2d_8">
      <g>
       <use xlink:href="#m65dda71f85" x="433.136644" y="457.517969" style="stroke: #000000; stroke-width: 0.8"/>
      </g>
     </g>
     <g id="text_4">
      <!-- 600 -->
      <g transform="translate(423.592894 472.116406) scale(0.1 -0.1)">
       <defs>
        <path id="DejaVuSans-36" d="M 2113 2584 
Q 1688 2584 1439 2293 
Q 1191 2003 1191 1497 
Q 1191 994 1439 701 
Q 1688 409 2113 409 
Q 2538 409 2786 701 
Q 3034 994 3034 1497 
Q 3034 2003 2786 2293 
Q 2538 2584 2113 2584 
z
M 3366 4563 
L 3366 3988 
Q 3128 4100 2886 4159 
Q 2644 4219 2406 4219 
Q 1781 4219 1451 3797 
Q 1122 3375 1075 2522 
Q 1259 2794 1537 2939 
Q 1816 3084 2150 3084 
Q 2853 3084 3261 2657 
Q 3669 2231 3669 1497 
Q 3669 778 3244 343 
Q 2819 -91 2113 -91 
Q 1303 -91 875 529 
Q 447 1150 447 2328 
Q 447 3434 972 4092 
Q 1497 4750 2381 4750 
Q 2619 4750 2861 4703 
Q 3103 4656 3366 4563 
z
" transform="scale(0.015625)"/>
       </defs>
       <use xlink:href="#DejaVuSans-36"/>
       <use xlink:href="#DejaVuSans-30" transform="translate(63.623047 0)"/>
       <use xlink:href="#DejaVuSans-30" transform="translate(127.246094 0)"/>
      </g>
     </g>
    </g>
    <g id="xtick_5">
     <g id="line2d_9">
      <path d="M 554.772297 457.517969 
L 554.772297 23.077969 
" clip-path="url(#p3047032881)" style="fill: none; stroke: #b0b0b0; stroke-opacity: 0.3; stroke-width: 0.8; stroke-linecap: square"/>
     </g>
     <g id="line2d_10">
      <g>
       <use xlink:href="#m65dda71f85" x="554.772297" y="457.517969" style="stroke: #000000; stroke-width: 0.8"/>
      </g>
     </g>
     <g id="text_5">
      <!-- 800 -->
      <g transform="translate(545.228547 472.116406) scale(0.1 -0.1)">
       <defs>
        <path id="DejaVuSans-38" d="M 2034 2216 
Q 1584 2216 1326 1975 
Q 1069 1734 1069 1313 
Q 1069 891 1326 650 
Q 1584 409 2034 409 
Q 2484 409 2743 651 
Q 3003 894 3003 1313 
Q 3003 1734 2745 1975 
Q 2488 2216 2034 2216 
z
M 1403 2484 
Q 997 2584 770 2862 
Q 544 3141 544 3541 
Q 544 4100 942 4425 
Q 1341 4750 2034 4750 
Q 2731 4750 3128 4425 
Q 3525 4100 3525 3541 
Q 3525 3141 3298 2862 
Q 3072 2584 2669 2484 
Q 3125 2378 3379 2068 
Q 3634 1759 3634 1313 
Q 3634 634 3220 271 
Q 2806 -91 2034 -91 
Q 1263 -91 848 271 
Q 434 634 434 1313 
Q 434 1759 690 2068 
Q 947 2378 1403 2484 
z
M 1172 3481 
Q 1172 3119 1398 2916 
Q 1625 2713 2034 2713 
Q 2441 2713 2670 2916 
Q 2900 3119 2900 3481 
Q 2900 3844 2670 4047 
Q 2441 4250 2034 4250 
Q 1625 4250 1398 4047 
Q 1172 3844 1172 3481 
z
" transform="scale(0.015625)"/>
       </defs>
       <use xlink:href="#DejaVuSans-38"/>
       <use xlink:href="#DejaVuSans-30" transform="translate(63.623047 0)"/>
       <use xlink:href="#DejaVuSans-30" transform="translate(127.246094 0)"/>
      </g>
     </g>
    </g>
    <g id="xtick_6">
     <g id="line2d_11">
      <path d="M 676.407949 457.517969 
L 676.407949 23.077969 
" clip-path="url(#p3047032881)" style="fill: none; stroke: #b0b0b0; stroke-opacity: 0.3; stroke-width: 0.8; stroke-linecap: square"/>
     </g>
     <g id="line2d_12">
      <g>
       <use xlink:href="#m65dda71f85" x="676.407949" y="457.517969" style="stroke: #000000; stroke-width: 0.8"/>
      </g>
     </g>
     <g id="text_6">
      <!-- 1000 -->
      <g transform="translate(663.682949 472.116406) scale(0.1 -0.1)">
       <defs>
        <path id="DejaVuSans-31" d="M 794 531 
L 1825 531 
L 1825 4091 
L 703 3866 
L 703 4441 
L 1819 4666 
L 2450 4666 
L 2450 531 
L 3481 531 
L 3481 0 
L 794 0 
L 794 531 
z
" transform="scale(0.015625)"/>
       </defs>
       <use xlink:href="#DejaVuSans-31"/>
       <use xlink:href="#DejaVuSans-30" transform="translate(63.623047 0)"/>
       <use xlink:href="#DejaVuSans-30" transform="translate(127.246094 0)"/>
       <use xlink:href="#DejaVuSans-30" transform="translate(190.869141 0)"/>
      </g>
     </g>
    </g>
    <g id="text_7">
     <!-- Count -->
     <g transform="translate(368.610078 486.554375) scale(0.11 -0.11)">
      <defs>
       <path id="DejaVuSans-Bold-43" d="M 4288 256 
Q 3956 84 3597 -3 
Q 3238 -91 2847 -91 
Q 1681 -91 1000 561 
Q 319 1213 319 2328 
Q 319 3447 1000 4098 
Q 1681 4750 2847 4750 
Q 3238 4750 3597 4662 
Q 3956 4575 4288 4403 
L 4288 3438 
Q 3953 3666 3628 3772 
Q 3303 3878 2944 3878 
Q 2300 3878 1931 3465 
Q 1563 3053 1563 2328 
Q 1563 1606 1931 1193 
Q 2300 781 2944 781 
Q 3303 781 3628 887 
Q 3953 994 4288 1222 
L 4288 256 
z
" transform="scale(0.015625)"/>
       <path id="DejaVuSans-Bold-6f" d="M 2203 2784 
Q 1831 2784 1636 2517 
Q 1441 2250 1441 1747 
Q 1441 1244 1636 976 
Q 1831 709 2203 709 
Q 2569 709 2762 976 
Q 2956 1244 2956 1747 
Q 2956 2250 2762 2517 
Q 2569 2784 2203 2784 
z
M 2203 3584 
Q 3106 3584 3614 3096 
Q 4122 2609 4122 1747 
Q 4122 884 3614 396 
Q 3106 -91 2203 -91 
Q 1297 -91 786 396 
Q 275 884 275 1747 
Q 275 2609 786 3096 
Q 1297 3584 2203 3584 
z
" transform="scale(0.015625)"/>
       <path id="DejaVuSans-Bold-75" d="M 500 1363 
L 500 3500 
L 1625 3500 
L 1625 3150 
Q 1625 2866 1622 2436 
Q 1619 2006 1619 1863 
Q 1619 1441 1641 1255 
Q 1663 1069 1716 984 
Q 1784 875 1895 815 
Q 2006 756 2150 756 
Q 2500 756 2700 1025 
Q 2900 1294 2900 1772 
L 2900 3500 
L 4019 3500 
L 4019 0 
L 2900 0 
L 2900 506 
Q 2647 200 2364 54 
Q 2081 -91 1741 -91 
Q 1134 -91 817 281 
Q 500 653 500 1363 
z
" transform="scale(0.015625)"/>
       <path id="DejaVuSans-Bold-6e" d="M 4056 2131 
L 4056 0 
L 2931 0 
L 2931 347 
L 2931 1631 
Q 2931 2084 2911 2256 
Q 2891 2428 2841 2509 
Q 2775 2619 2662 2680 
Q 2550 2741 2406 2741 
Q 2056 2741 1856 2470 
Q 1656 2200 1656 1722 
L 1656 0 
L 538 0 
L 538 3500 
L 1656 3500 
L 1656 2988 
Q 1909 3294 2193 3439 
Q 2478 3584 2822 3584 
Q 3428 3584 3742 3212 
Q 4056 2841 4056 2131 
z
" transform="scale(0.015625)"/>
       <path id="DejaVuSans-Bold-74" d="M 1759 4494 
L 1759 3500 
L 2913 3500 
L 2913 2700 
L 1759 2700 
L 1759 1216 
Q 1759 972 1856 886 
Q 1953 800 2241 800 
L 2816 800 
L 2816 0 
L 1856 0 
Q 1194 0 917 276 
Q 641 553 641 1216 
L 641 2700 
L 84 2700 
L 84 3500 
L 641 3500 
L 641 4494 
L 1759 4494 
z
" transform="scale(0.015625)"/>
      </defs>
      <use xlink:href="#DejaVuSans-Bold-43"/>
      <use xlink:href="#DejaVuSans-Bold-6f" transform="translate(73.388672 0)"/>
      <use xlink:href="#DejaVuSans-Bold-75" transform="translate(142.089844 0)"/>
      <use xlink:href="#DejaVuSans-Bold-6e" transform="translate(213.28125 0)"/>
      <use xlink:href="#DejaVuSans-Bold-74" transform="translate(284.472656 0)"/>
     </g>
    </g>
   </g>
   <g id="matplotlib.axis_2">
    <g id="ytick_1">
     <g id="line2d_13">
      <defs>
       <path id="m8925887c18" d="M 0 0 
L -3.5 0 
" style="stroke: #000000; stroke-width: 0.8"/>
      </defs>
      <g>
       <use xlink:href="#m8925887c18" x="68.229687" y="421.650473" style="stroke: #000000; stroke-width: 0.8"/>
      </g>
     </g>
     <g id="text_8">
      <!-- ko01100 -->
      <g transform="translate(17.870312 425.449692) scale(0.1 -0.1)">
       <defs>
        <path id="DejaVuSans-6b" d="M 581 4863 
L 1159 4863 
L 1159 1991 
L 2875 3500 
L 3609 3500 
L 1753 1863 
L 3688 0 
L 2938 0 
L 1159 1709 
L 1159 0 
L 581 0 
L 581 4863 
z
" transform="scale(0.015625)"/>
        <path id="DejaVuSans-6f" d="M 1959 3097 
Q 1497 3097 1228 2736 
Q 959 2375 959 1747 
Q 959 1119 1226 758 
Q 1494 397 1959 397 
Q 2419 397 2687 759 
Q 2956 1122 2956 1747 
Q 2956 2369 2687 2733 
Q 2419 3097 1959 3097 
z
M 1959 3584 
Q 2709 3584 3137 3096 
Q 3566 2609 3566 1747 
Q 3566 888 3137 398 
Q 2709 -91 1959 -91 
Q 1206 -91 779 398 
Q 353 888 353 1747 
Q 353 2609 779 3096 
Q 1206 3584 1959 3584 
z
" transform="scale(0.015625)"/>
       </defs>
       <use xlink:href="#DejaVuSans-6b"/>
       <use xlink:href="#DejaVuSans-6f" transform="translate(54.285156 0)"/>
       <use xlink:href="#DejaVuSans-30" transform="translate(115.466797 0)"/>
       <use xlink:href="#DejaVuSans-31" transform="translate(179.089844 0)"/>
       <use xlink:href="#DejaVuSans-31" transform="translate(242.712891 0)"/>
       <use xlink:href="#DejaVuSans-30" transform="translate(306.335938 0)"/>
       <use xlink:href="#DejaVuSans-30" transform="translate(369.958984 0)"/>
      </g>
     </g>
    </g>
    <g id="ytick_2">
     <g id="line2d_14">
      <g>
       <use xlink:href="#m8925887c18" x="68.229687" y="381.349917" style="stroke: #000000; stroke-width: 0.8"/>
      </g>
     </g>
     <g id="text_9">
      <!-- map01100 -->
      <g transform="translate(7.2 385.149136) scale(0.1 -0.1)">
       <defs>
        <path id="DejaVuSans-6d" d="M 3328 2828 
Q 3544 3216 3844 3400 
Q 4144 3584 4550 3584 
Q 5097 3584 5394 3201 
Q 5691 2819 5691 2113 
L 5691 0 
L 5113 0 
L 5113 2094 
Q 5113 2597 4934 2840 
Q 4756 3084 4391 3084 
Q 3944 3084 3684 2787 
Q 3425 2491 3425 1978 
L 3425 0 
L 2847 0 
L 2847 2094 
Q 2847 2600 2669 2842 
Q 2491 3084 2119 3084 
Q 1678 3084 1418 2786 
Q 1159 2488 1159 1978 
L 1159 0 
L 581 0 
L 581 3500 
L 1159 3500 
L 1159 2956 
Q 1356 3278 1631 3431 
Q 1906 3584 2284 3584 
Q 2666 3584 2933 3390 
Q 3200 3197 3328 2828 
z
" transform="scale(0.015625)"/>
        <path id="DejaVuSans-61" d="M 2194 1759 
Q 1497 1759 1228 1600 
Q 959 1441 959 1056 
Q 959 750 1161 570 
Q 1363 391 1709 391 
Q 2188 391 2477 730 
Q 2766 1069 2766 1631 
L 2766 1759 
L 2194 1759 
z
M 3341 1997 
L 3341 0 
L 2766 0 
L 2766 531 
Q 2569 213 2275 61 
Q 1981 -91 1556 -91 
Q 1019 -91 701 211 
Q 384 513 384 1019 
Q 384 1609 779 1909 
Q 1175 2209 1959 2209 
L 2766 2209 
L 2766 2266 
Q 2766 2663 2505 2880 
Q 2244 3097 1772 3097 
Q 1472 3097 1187 3025 
Q 903 2953 641 2809 
L 641 3341 
Q 956 3463 1253 3523 
Q 1550 3584 1831 3584 
Q 2591 3584 2966 3190 
Q 3341 2797 3341 1997 
z
" transform="scale(0.015625)"/>
        <path id="DejaVuSans-70" d="M 1159 525 
L 1159 -1331 
L 581 -1331 
L 581 3500 
L 1159 3500 
L 1159 2969 
Q 1341 3281 1617 3432 
Q 1894 3584 2278 3584 
Q 2916 3584 3314 3078 
Q 3713 2572 3713 1747 
Q 3713 922 3314 415 
Q 2916 -91 2278 -91 
Q 1894 -91 1617 61 
Q 1341 213 1159 525 
z
M 3116 1747 
Q 3116 2381 2855 2742 
Q 2594 3103 2138 3103 
Q 1681 3103 1420 2742 
Q 1159 2381 1159 1747 
Q 1159 1113 1420 752 
Q 1681 391 2138 391 
Q 2594 391 2855 752 
Q 3116 1113 3116 1747 
z
" transform="scale(0.015625)"/>
       </defs>
       <use xlink:href="#DejaVuSans-6d"/>
       <use xlink:href="#DejaVuSans-61" transform="translate(97.412109 0)"/>
       <use xlink:href="#DejaVuSans-70" transform="translate(158.691406 0)"/>
       <use xlink:href="#DejaVuSans-30" transform="translate(222.167969 0)"/>
       <use xlink:href="#DejaVuSans-31" transform="translate(285.791016 0)"/>
       <use xlink:href="#DejaVuSans-31" transform="translate(349.414062 0)"/>
       <use xlink:href="#DejaVuSans-30" transform="translate(413.037109 0)"/>
       <use xlink:href="#DejaVuSans-30" transform="translate(476.660156 0)"/>
      </g>
     </g>
    </g>
    <g id="ytick_3">
     <g id="line2d_15">
      <g>
       <use xlink:href="#m8925887c18" x="68.229687" y="341.04936" style="stroke: #000000; stroke-width: 0.8"/>
      </g>
     </g>
     <g id="text_10">
      <!-- ko01110 -->
      <g transform="translate(17.870312 344.848579) scale(0.1 -0.1)">
       <use xlink:href="#DejaVuSans-6b"/>
       <use xlink:href="#DejaVuSans-6f" transform="translate(54.285156 0)"/>
       <use xlink:href="#DejaVuSans-30" transform="translate(115.466797 0)"/>
       <use xlink:href="#DejaVuSans-31" transform="translate(179.089844 0)"/>
       <use xlink:href="#DejaVuSans-31" transform="translate(242.712891 0)"/>
       <use xlink:href="#DejaVuSans-31" transform="translate(306.335938 0)"/>
       <use xlink:href="#DejaVuSans-30" transform="translate(369.958984 0)"/>
      </g>
     </g>
    </g>
    <g id="ytick_4">
     <g id="line2d_16">
      <g>
       <use xlink:href="#m8925887c18" x="68.229687" y="300.748804" style="stroke: #000000; stroke-width: 0.8"/>
      </g>
     </g>
     <g id="text_11">
      <!-- map01110 -->
      <g transform="translate(7.2 304.548022) scale(0.1 -0.1)">
       <use xlink:href="#DejaVuSans-6d"/>
       <use xlink:href="#DejaVuSans-61" transform="translate(97.412109 0)"/>
       <use xlink:href="#DejaVuSans-70" transform="translate(158.691406 0)"/>
       <use xlink:href="#DejaVuSans-30" transform="translate(222.167969 0)"/>
       <use xlink:href="#DejaVuSans-31" transform="translate(285.791016 0)"/>
       <use xlink:href="#DejaVuSans-31" transform="translate(349.414062 0)"/>
       <use xlink:href="#DejaVuSans-31" transform="translate(413.037109 0)"/>
       <use xlink:href="#DejaVuSans-30" transform="translate(476.660156 0)"/>
      </g>
     </g>
    </g>
    <g id="ytick_5">
     <g id="line2d_17">
      <g>
       <use xlink:href="#m8925887c18" x="68.229687" y="260.448247" style="stroke: #000000; stroke-width: 0.8"/>
      </g>
     </g>
     <g id="text_12">
      <!-- ko05200 -->
      <g transform="translate(17.870312 264.247466) scale(0.1 -0.1)">
       <defs>
        <path id="DejaVuSans-35" d="M 691 4666 
L 3169 4666 
L 3169 4134 
L 1269 4134 
L 1269 2991 
Q 1406 3038 1543 3061 
Q 1681 3084 1819 3084 
Q 2600 3084 3056 2656 
Q 3513 2228 3513 1497 
Q 3513 744 3044 326 
Q 2575 -91 1722 -91 
Q 1428 -91 1123 -41 
Q 819 9 494 109 
L 494 744 
Q 775 591 1075 516 
Q 1375 441 1709 441 
Q 2250 441 2565 725 
Q 2881 1009 2881 1497 
Q 2881 1984 2565 2268 
Q 2250 2553 1709 2553 
Q 1456 2553 1204 2497 
Q 953 2441 691 2322 
L 691 4666 
z
" transform="scale(0.015625)"/>
       </defs>
       <use xlink:href="#DejaVuSans-6b"/>
       <use xlink:href="#DejaVuSans-6f" transform="translate(54.285156 0)"/>
       <use xlink:href="#DejaVuSans-30" transform="translate(115.466797 0)"/>
       <use xlink:href="#DejaVuSans-35" transform="translate(179.089844 0)"/>
       <use xlink:href="#DejaVuSans-32" transform="translate(242.712891 0)"/>
       <use xlink:href="#DejaVuSans-30" transform="translate(306.335938 0)"/>
       <use xlink:href="#DejaVuSans-30" transform="translate(369.958984 0)"/>
      </g>
     </g>
    </g>
    <g id="ytick_6">
     <g id="line2d_18">
      <g>
       <use xlink:href="#m8925887c18" x="68.229687" y="220.14769" style="stroke: #000000; stroke-width: 0.8"/>
      </g>
     </g>
     <g id="text_13">
      <!-- map05200 -->
      <g transform="translate(7.2 223.946909) scale(0.1 -0.1)">
       <use xlink:href="#DejaVuSans-6d"/>
       <use xlink:href="#DejaVuSans-61" transform="translate(97.412109 0)"/>
       <use xlink:href="#DejaVuSans-70" transform="translate(158.691406 0)"/>
       <use xlink:href="#DejaVuSans-30" transform="translate(222.167969 0)"/>
       <use xlink:href="#DejaVuSans-35" transform="translate(285.791016 0)"/>
       <use xlink:href="#DejaVuSans-32" transform="translate(349.414062 0)"/>
       <use xlink:href="#DejaVuSans-30" transform="translate(413.037109 0)"/>
       <use xlink:href="#DejaVuSans-30" transform="translate(476.660156 0)"/>
      </g>
     </g>
    </g>
    <g id="ytick_7">
     <g id="line2d_19">
      <g>
       <use xlink:href="#m8925887c18" x="68.229687" y="179.847134" style="stroke: #000000; stroke-width: 0.8"/>
      </g>
     </g>
     <g id="text_14">
      <!-- ko04144 -->
      <g transform="translate(17.870312 183.646353) scale(0.1 -0.1)">
       <use xlink:href="#DejaVuSans-6b"/>
       <use xlink:href="#DejaVuSans-6f" transform="translate(54.285156 0)"/>
       <use xlink:href="#DejaVuSans-30" transform="translate(115.466797 0)"/>
       <use xlink:href="#DejaVuSans-34" transform="translate(179.089844 0)"/>
       <use xlink:href="#DejaVuSans-31" transform="translate(242.712891 0)"/>
       <use xlink:href="#DejaVuSans-34" transform="translate(306.335938 0)"/>
       <use xlink:href="#DejaVuSans-34" transform="translate(369.958984 0)"/>
      </g>
     </g>
    </g>
    <g id="ytick_8">
     <g id="line2d_20">
      <g>
       <use xlink:href="#m8925887c18" x="68.229687" y="139.546577" style="stroke: #000000; stroke-width: 0.8"/>
      </g>
     </g>
     <g id="text_15">
      <!-- map04144 -->
      <g transform="translate(7.2 143.345796) scale(0.1 -0.1)">
       <use xlink:href="#DejaVuSans-6d"/>
       <use xlink:href="#DejaVuSans-61" transform="translate(97.412109 0)"/>
       <use xlink:href="#DejaVuSans-70" transform="translate(158.691406 0)"/>
       <use xlink:href="#DejaVuSans-30" transform="translate(222.167969 0)"/>
       <use xlink:href="#DejaVuSans-34" transform="translate(285.791016 0)"/>
       <use xlink:href="#DejaVuSans-31" transform="translate(349.414062 0)"/>
       <use xlink:href="#DejaVuSans-34" transform="translate(413.037109 0)"/>
       <use xlink:href="#DejaVuSans-34" transform="translate(476.660156 0)"/>
      </g>
     </g>
    </g>
    <g id="ytick_9">
     <g id="line2d_21">
      <g>
       <use xlink:href="#m8925887c18" x="68.229687" y="99.246021" style="stroke: #000000; stroke-width: 0.8"/>
      </g>
     </g>
     <g id="text_16">
      <!-- ko01130 -->
      <g transform="translate(17.870312 103.045239) scale(0.1 -0.1)">
       <defs>
        <path id="DejaVuSans-33" d="M 2597 2516 
Q 3050 2419 3304 2112 
Q 3559 1806 3559 1356 
Q 3559 666 3084 287 
Q 2609 -91 1734 -91 
Q 1441 -91 1130 -33 
Q 819 25 488 141 
L 488 750 
Q 750 597 1062 519 
Q 1375 441 1716 441 
Q 2309 441 2620 675 
Q 2931 909 2931 1356 
Q 2931 1769 2642 2001 
Q 2353 2234 1838 2234 
L 1294 2234 
L 1294 2753 
L 1863 2753 
Q 2328 2753 2575 2939 
Q 2822 3125 2822 3475 
Q 2822 3834 2567 4026 
Q 2313 4219 1838 4219 
Q 1578 4219 1281 4162 
Q 984 4106 628 3988 
L 628 4550 
Q 988 4650 1302 4700 
Q 1616 4750 1894 4750 
Q 2613 4750 3031 4423 
Q 3450 4097 3450 3541 
Q 3450 3153 3228 2886 
Q 3006 2619 2597 2516 
z
" transform="scale(0.015625)"/>
       </defs>
       <use xlink:href="#DejaVuSans-6b"/>
       <use xlink:href="#DejaVuSans-6f" transform="translate(54.285156 0)"/>
       <use xlink:href="#DejaVuSans-30" transform="translate(115.466797 0)"/>
       <use xlink:href="#DejaVuSans-31" transform="translate(179.089844 0)"/>
       <use xlink:href="#DejaVuSans-31" transform="translate(242.712891 0)"/>
       <use xlink:href="#DejaVuSans-33" transform="translate(306.335938 0)"/>
       <use xlink:href="#DejaVuSans-30" transform="translate(369.958984 0)"/>
      </g>
     </g>
    </g>
    <g id="ytick_10">
     <g id="line2d_22">
      <g>
       <use xlink:href="#m8925887c18" x="68.229687" y="58.945464" style="stroke: #000000; stroke-width: 0.8"/>
      </g>
     </g>
     <g id="text_17">
      <!-- map01130 -->
      <g transform="translate(7.2 62.744683) scale(0.1 -0.1)">
       <use xlink:href="#DejaVuSans-6d"/>
       <use xlink:href="#DejaVuSans-61" transform="translate(97.412109 0)"/>
       <use xlink:href="#DejaVuSans-70" transform="translate(158.691406 0)"/>
       <use xlink:href="#DejaVuSans-30" transform="translate(222.167969 0)"/>
       <use xlink:href="#DejaVuSans-31" transform="translate(285.791016 0)"/>
       <use xlink:href="#DejaVuSans-31" transform="translate(349.414062 0)"/>
       <use xlink:href="#DejaVuSans-33" transform="translate(413.037109 0)"/>
       <use xlink:href="#DejaVuSans-30" transform="translate(476.660156 0)"/>
      </g>
     </g>
    </g>
   </g>
   <g id="patch_13">
    <path d="M 68.229687 457.517969 
L 68.229687 23.077969 
" style="fill: none; stroke: #000000; stroke-width: 0.8; stroke-linejoin: miter; stroke-linecap: square"/>
   </g>
   <g id="patch_14">
    <path d="M 705.539688 457.517969 
L 705.539688 23.077969 
" style="fill: none; stroke: #000000; stroke-width: 0.8; stroke-linejoin: miter; stroke-linecap: square"/>
   </g>
   <g id="patch_15">
    <path d="M 68.229687 457.517969 
L 705.539688 457.517969 
" style="fill: none; stroke: #000000; stroke-width: 0.8; stroke-linejoin: miter; stroke-linecap: square"/>
   </g>
   <g id="patch_16">
    <path d="M 68.229687 23.077969 
L 705.539688 23.077969 
" style="fill: none; stroke: #000000; stroke-width: 0.8; stroke-linejoin: miter; stroke-linecap: square"/>
   </g>
   <g id="text_18">
    <!-- 998 -->
    <g transform="translate(678.232484 424.409848) scale(0.1 -0.1)">
     <defs>
      <path id="DejaVuSans-Bold-39" d="M 641 103 
L 641 966 
Q 928 831 1190 764 
Q 1453 697 1709 697 
Q 2247 697 2547 995 
Q 2847 1294 2900 1881 
Q 2688 1725 2447 1647 
Q 2206 1569 1925 1569 
Q 1209 1569 770 1986 
Q 331 2403 331 3084 
Q 331 3838 820 4291 
Q 1309 4744 2131 4744 
Q 3044 4744 3544 4128 
Q 4044 3513 4044 2388 
Q 4044 1231 3459 570 
Q 2875 -91 1856 -91 
Q 1528 -91 1228 -42 
Q 928 6 641 103 
z
M 2125 2350 
Q 2441 2350 2600 2554 
Q 2759 2759 2759 3169 
Q 2759 3575 2600 3781 
Q 2441 3988 2125 3988 
Q 1809 3988 1650 3781 
Q 1491 3575 1491 3169 
Q 1491 2759 1650 2554 
Q 1809 2350 2125 2350 
z
" transform="scale(0.015625)"/>
      <path id="DejaVuSans-Bold-38" d="M 2228 2088 
Q 1891 2088 1709 1903 
Q 1528 1719 1528 1375 
Q 1528 1031 1709 848 
Q 1891 666 2228 666 
Q 2563 666 2741 848 
Q 2919 1031 2919 1375 
Q 2919 1722 2741 1905 
Q 2563 2088 2228 2088 
z
M 1350 2484 
Q 925 2613 709 2878 
Q 494 3144 494 3541 
Q 494 4131 934 4440 
Q 1375 4750 2228 4750 
Q 3075 4750 3515 4442 
Q 3956 4134 3956 3541 
Q 3956 3144 3739 2878 
Q 3522 2613 3097 2484 
Q 3572 2353 3814 2058 
Q 4056 1763 4056 1313 
Q 4056 619 3595 264 
Q 3134 -91 2228 -91 
Q 1319 -91 855 264 
Q 391 619 391 1313 
Q 391 1763 633 2058 
Q 875 2353 1350 2484 
z
M 1631 3419 
Q 1631 3141 1786 2991 
Q 1941 2841 2228 2841 
Q 2509 2841 2662 2991 
Q 2816 3141 2816 3419 
Q 2816 3697 2662 3845 
Q 2509 3994 2228 3994 
Q 1941 3994 1786 3844 
Q 1631 3694 1631 3419 
z
" transform="scale(0.015625)"/>
     </defs>
     <use xlink:href="#DejaVuSans-Bold-39"/>
     <use xlink:href="#DejaVuSans-Bold-39" transform="translate(69.580078 0)"/>
     <use xlink:href="#DejaVuSans-Bold-38" transform="translate(139.160156 0)"/>
    </g>
   </g>
   <g id="text_19">
    <!-- 998 -->
    <g transform="translate(678.232484 384.109292) scale(0.1 -0.1)">
     <use xlink:href="#DejaVuSans-Bold-39"/>
     <use xlink:href="#DejaVuSans-Bold-39" transform="translate(69.580078 0)"/>
     <use xlink:href="#DejaVuSans-Bold-38" transform="translate(139.160156 0)"/>
    </g>
   </g>
   <g id="text_20">
    <!-- 348 -->
    <g transform="translate(282.916614 343.808735) scale(0.1 -0.1)">
     <defs>
      <path id="DejaVuSans-Bold-33" d="M 2981 2516 
Q 3453 2394 3698 2092 
Q 3944 1791 3944 1325 
Q 3944 631 3412 270 
Q 2881 -91 1863 -91 
Q 1503 -91 1142 -33 
Q 781 25 428 141 
L 428 1069 
Q 766 900 1098 814 
Q 1431 728 1753 728 
Q 2231 728 2486 893 
Q 2741 1059 2741 1369 
Q 2741 1688 2480 1852 
Q 2219 2016 1709 2016 
L 1228 2016 
L 1228 2791 
L 1734 2791 
Q 2188 2791 2409 2933 
Q 2631 3075 2631 3366 
Q 2631 3634 2415 3781 
Q 2200 3928 1806 3928 
Q 1516 3928 1219 3862 
Q 922 3797 628 3669 
L 628 4550 
Q 984 4650 1334 4700 
Q 1684 4750 2022 4750 
Q 2931 4750 3382 4451 
Q 3834 4153 3834 3553 
Q 3834 3144 3618 2883 
Q 3403 2622 2981 2516 
z
" transform="scale(0.015625)"/>
      <path id="DejaVuSans-Bold-34" d="M 2356 3675 
L 1038 1722 
L 2356 1722 
L 2356 3675 
z
M 2156 4666 
L 3494 4666 
L 3494 1722 
L 4159 1722 
L 4159 850 
L 3494 850 
L 3494 0 
L 2356 0 
L 2356 850 
L 288 850 
L 288 1881 
L 2156 4666 
z
" transform="scale(0.015625)"/>
     </defs>
     <use xlink:href="#DejaVuSans-Bold-33"/>
     <use xlink:href="#DejaVuSans-Bold-34" transform="translate(69.580078 0)"/>
     <use xlink:href="#DejaVuSans-Bold-38" transform="translate(139.160156 0)"/>
    </g>
   </g>
   <g id="text_21">
    <!-- 348 -->
    <g transform="translate(282.916614 303.508179) scale(0.1 -0.1)">
     <use xlink:href="#DejaVuSans-Bold-33"/>
     <use xlink:href="#DejaVuSans-Bold-34" transform="translate(69.580078 0)"/>
     <use xlink:href="#DejaVuSans-Bold-38" transform="translate(139.160156 0)"/>
    </g>
   </g>
   <g id="text_22">
    <!-- 295 -->
    <g transform="translate(250.683166 263.207622) scale(0.1 -0.1)">
     <defs>
      <path id="DejaVuSans-Bold-32" d="M 1844 884 
L 3897 884 
L 3897 0 
L 506 0 
L 506 884 
L 2209 2388 
Q 2438 2594 2547 2791 
Q 2656 2988 2656 3200 
Q 2656 3528 2436 3728 
Q 2216 3928 1850 3928 
Q 1569 3928 1234 3808 
Q 900 3688 519 3450 
L 519 4475 
Q 925 4609 1322 4679 
Q 1719 4750 2100 4750 
Q 2938 4750 3402 4381 
Q 3866 4013 3866 3353 
Q 3866 2972 3669 2642 
Q 3472 2313 2841 1759 
L 1844 884 
z
" transform="scale(0.015625)"/>
      <path id="DejaVuSans-Bold-35" d="M 678 4666 
L 3669 4666 
L 3669 3781 
L 1638 3781 
L 1638 3059 
Q 1775 3097 1914 3117 
Q 2053 3138 2203 3138 
Q 3056 3138 3531 2711 
Q 4006 2284 4006 1522 
Q 4006 766 3489 337 
Q 2972 -91 2053 -91 
Q 1656 -91 1267 -14 
Q 878 63 494 219 
L 494 1166 
Q 875 947 1217 837 
Q 1559 728 1863 728 
Q 2300 728 2551 942 
Q 2803 1156 2803 1522 
Q 2803 1891 2551 2103 
Q 2300 2316 1863 2316 
Q 1603 2316 1309 2248 
Q 1016 2181 678 2041 
L 678 4666 
z
" transform="scale(0.015625)"/>
     </defs>
     <use xlink:href="#DejaVuSans-Bold-32"/>
     <use xlink:href="#DejaVuSans-Bold-39" transform="translate(69.580078 0)"/>
     <use xlink:href="#DejaVuSans-Bold-35" transform="translate(139.160156 0)"/>
    </g>
   </g>
   <g id="text_23">
    <!-- 295 -->
    <g transform="translate(250.683166 222.907065) scale(0.1 -0.1)">
     <use xlink:href="#DejaVuSans-Bold-32"/>
     <use xlink:href="#DejaVuSans-Bold-39" transform="translate(69.580078 0)"/>
     <use xlink:href="#DejaVuSans-Bold-35" transform="translate(139.160156 0)"/>
    </g>
   </g>
   <g id="text_24">
    <!-- 196 -->
    <g transform="translate(190.473518 182.606509) scale(0.1 -0.1)">
     <defs>
      <path id="DejaVuSans-Bold-31" d="M 750 831 
L 1813 831 
L 1813 3847 
L 722 3622 
L 722 4441 
L 1806 4666 
L 2950 4666 
L 2950 831 
L 4013 831 
L 4013 0 
L 750 0 
L 750 831 
z
" transform="scale(0.015625)"/>
      <path id="DejaVuSans-Bold-36" d="M 2316 2303 
Q 2000 2303 1842 2098 
Q 1684 1894 1684 1484 
Q 1684 1075 1842 870 
Q 2000 666 2316 666 
Q 2634 666 2792 870 
Q 2950 1075 2950 1484 
Q 2950 1894 2792 2098 
Q 2634 2303 2316 2303 
z
M 3803 4544 
L 3803 3681 
Q 3506 3822 3243 3889 
Q 2981 3956 2731 3956 
Q 2194 3956 1894 3657 
Q 1594 3359 1544 2772 
Q 1750 2925 1990 3001 
Q 2231 3078 2516 3078 
Q 3231 3078 3670 2659 
Q 4109 2241 4109 1563 
Q 4109 813 3618 361 
Q 3128 -91 2303 -91 
Q 1394 -91 895 523 
Q 397 1138 397 2266 
Q 397 3422 980 4083 
Q 1563 4744 2578 4744 
Q 2900 4744 3203 4694 
Q 3506 4644 3803 4544 
z
" transform="scale(0.015625)"/>
     </defs>
     <use xlink:href="#DejaVuSans-Bold-31"/>
     <use xlink:href="#DejaVuSans-Bold-39" transform="translate(69.580078 0)"/>
     <use xlink:href="#DejaVuSans-Bold-36" transform="translate(139.160156 0)"/>
    </g>
   </g>
   <g id="text_25">
    <!-- 196 -->
    <g transform="translate(190.473518 142.305952) scale(0.1 -0.1)">
     <use xlink:href="#DejaVuSans-Bold-31"/>
     <use xlink:href="#DejaVuSans-Bold-39" transform="translate(69.580078 0)"/>
     <use xlink:href="#DejaVuSans-Bold-36" transform="translate(139.160156 0)"/>
    </g>
   </g>
   <g id="text_26">
    <!-- 193 -->
    <g transform="translate(188.648983 102.005396) scale(0.1 -0.1)">
     <use xlink:href="#DejaVuSans-Bold-31"/>
     <use xlink:href="#DejaVuSans-Bold-39" transform="translate(69.580078 0)"/>
     <use xlink:href="#DejaVuSans-Bold-33" transform="translate(139.160156 0)"/>
    </g>
   </g>
   <g id="text_27">
    <!-- 193 -->
    <g transform="translate(188.648983 61.704839) scale(0.1 -0.1)">
     <use xlink:href="#DejaVuSans-Bold-31"/>
     <use xlink:href="#DejaVuSans-Bold-39" transform="translate(69.580078 0)"/>
     <use xlink:href="#DejaVuSans-Bold-33" transform="translate(139.160156 0)"/>
    </g>
   </g>
   <g id="text_28">
    <!-- Top 10 KEGG Pathways -->
    <g transform="translate(303.204297 17.077969) scale(0.13 -0.13)">
     <defs>
      <path id="DejaVuSans-Bold-54" d="M 31 4666 
L 4331 4666 
L 4331 3756 
L 2784 3756 
L 2784 0 
L 1581 0 
L 1581 3756 
L 31 3756 
L 31 4666 
z
" transform="scale(0.015625)"/>
      <path id="DejaVuSans-Bold-70" d="M 1656 506 
L 1656 -1331 
L 538 -1331 
L 538 3500 
L 1656 3500 
L 1656 2988 
Q 1888 3294 2169 3439 
Q 2450 3584 2816 3584 
Q 3463 3584 3878 3070 
Q 4294 2556 4294 1747 
Q 4294 938 3878 423 
Q 3463 -91 2816 -91 
Q 2450 -91 2169 54 
Q 1888 200 1656 506 
z
M 2400 2772 
Q 2041 2772 1848 2508 
Q 1656 2244 1656 1747 
Q 1656 1250 1848 986 
Q 2041 722 2400 722 
Q 2759 722 2948 984 
Q 3138 1247 3138 1747 
Q 3138 2247 2948 2509 
Q 2759 2772 2400 2772 
z
" transform="scale(0.015625)"/>
      <path id="DejaVuSans-Bold-20" transform="scale(0.015625)"/>
      <path id="DejaVuSans-Bold-30" d="M 2944 2338 
Q 2944 3213 2780 3570 
Q 2616 3928 2228 3928 
Q 1841 3928 1675 3570 
Q 1509 3213 1509 2338 
Q 1509 1453 1675 1090 
Q 1841 728 2228 728 
Q 2613 728 2778 1090 
Q 2944 1453 2944 2338 
z
M 4147 2328 
Q 4147 1169 3647 539 
Q 3147 -91 2228 -91 
Q 1306 -91 806 539 
Q 306 1169 306 2328 
Q 306 3491 806 4120 
Q 1306 4750 2228 4750 
Q 3147 4750 3647 4120 
Q 4147 3491 4147 2328 
z
" transform="scale(0.015625)"/>
      <path id="DejaVuSans-Bold-4b" d="M 588 4666 
L 1791 4666 
L 1791 2963 
L 3525 4666 
L 4922 4666 
L 2675 2456 
L 5153 0 
L 3647 0 
L 1791 1838 
L 1791 0 
L 588 0 
L 588 4666 
z
" transform="scale(0.015625)"/>
      <path id="DejaVuSans-Bold-45" d="M 588 4666 
L 3834 4666 
L 3834 3756 
L 1791 3756 
L 1791 2888 
L 3713 2888 
L 3713 1978 
L 1791 1978 
L 1791 909 
L 3903 909 
L 3903 0 
L 588 0 
L 588 4666 
z
" transform="scale(0.015625)"/>
      <path id="DejaVuSans-Bold-47" d="M 4781 347 
Q 4331 128 3847 18 
Q 3363 -91 2847 -91 
Q 1681 -91 1000 561 
Q 319 1213 319 2328 
Q 319 3456 1012 4103 
Q 1706 4750 2913 4750 
Q 3378 4750 3804 4662 
Q 4231 4575 4609 4403 
L 4609 3438 
Q 4219 3659 3833 3768 
Q 3447 3878 3059 3878 
Q 2341 3878 1952 3476 
Q 1563 3075 1563 2328 
Q 1563 1588 1938 1184 
Q 2313 781 3003 781 
Q 3191 781 3352 804 
Q 3513 828 3641 878 
L 3641 1784 
L 2906 1784 
L 2906 2591 
L 4781 2591 
L 4781 347 
z
" transform="scale(0.015625)"/>
      <path id="DejaVuSans-Bold-50" d="M 588 4666 
L 2584 4666 
Q 3475 4666 3951 4270 
Q 4428 3875 4428 3144 
Q 4428 2409 3951 2014 
Q 3475 1619 2584 1619 
L 1791 1619 
L 1791 0 
L 588 0 
L 588 4666 
z
M 1791 3794 
L 1791 2491 
L 2456 2491 
Q 2806 2491 2997 2661 
Q 3188 2831 3188 3144 
Q 3188 3456 2997 3625 
Q 2806 3794 2456 3794 
L 1791 3794 
z
" transform="scale(0.015625)"/>
      <path id="DejaVuSans-Bold-61" d="M 2106 1575 
Q 1756 1575 1579 1456 
Q 1403 1338 1403 1106 
Q 1403 894 1545 773 
Q 1688 653 1941 653 
Q 2256 653 2472 879 
Q 2688 1106 2688 1447 
L 2688 1575 
L 2106 1575 
z
M 3816 1997 
L 3816 0 
L 2688 0 
L 2688 519 
Q 2463 200 2181 54 
Q 1900 -91 1497 -91 
Q 953 -91 614 226 
Q 275 544 275 1050 
Q 275 1666 698 1953 
Q 1122 2241 2028 2241 
L 2688 2241 
L 2688 2328 
Q 2688 2594 2478 2717 
Q 2269 2841 1825 2841 
Q 1466 2841 1156 2769 
Q 847 2697 581 2553 
L 581 3406 
Q 941 3494 1303 3539 
Q 1666 3584 2028 3584 
Q 2975 3584 3395 3211 
Q 3816 2838 3816 1997 
z
" transform="scale(0.015625)"/>
      <path id="DejaVuSans-Bold-68" d="M 4056 2131 
L 4056 0 
L 2931 0 
L 2931 347 
L 2931 1625 
Q 2931 2084 2911 2256 
Q 2891 2428 2841 2509 
Q 2775 2619 2662 2680 
Q 2550 2741 2406 2741 
Q 2056 2741 1856 2470 
Q 1656 2200 1656 1722 
L 1656 0 
L 538 0 
L 538 4863 
L 1656 4863 
L 1656 2988 
Q 1909 3294 2193 3439 
Q 2478 3584 2822 3584 
Q 3428 3584 3742 3212 
Q 4056 2841 4056 2131 
z
" transform="scale(0.015625)"/>
      <path id="DejaVuSans-Bold-77" d="M 225 3500 
L 1313 3500 
L 1900 1088 
L 2491 3500 
L 3425 3500 
L 4013 1113 
L 4603 3500 
L 5691 3500 
L 4769 0 
L 3547 0 
L 2956 2406 
L 2369 0 
L 1147 0 
L 225 3500 
z
" transform="scale(0.015625)"/>
      <path id="DejaVuSans-Bold-79" d="M 78 3500 
L 1197 3500 
L 2138 1125 
L 2938 3500 
L 4056 3500 
L 2584 -331 
Q 2363 -916 2067 -1148 
Q 1772 -1381 1288 -1381 
L 641 -1381 
L 641 -647 
L 991 -647 
Q 1275 -647 1404 -556 
Q 1534 -466 1606 -231 
L 1638 -134 
L 78 3500 
z
" transform="scale(0.015625)"/>
      <path id="DejaVuSans-Bold-73" d="M 3272 3391 
L 3272 2541 
Q 2913 2691 2578 2766 
Q 2244 2841 1947 2841 
Q 1628 2841 1473 2761 
Q 1319 2681 1319 2516 
Q 1319 2381 1436 2309 
Q 1553 2238 1856 2203 
L 2053 2175 
Q 2913 2066 3209 1816 
Q 3506 1566 3506 1031 
Q 3506 472 3093 190 
Q 2681 -91 1863 -91 
Q 1516 -91 1145 -36 
Q 775 19 384 128 
L 384 978 
Q 719 816 1070 734 
Q 1422 653 1784 653 
Q 2113 653 2278 743 
Q 2444 834 2444 1013 
Q 2444 1163 2330 1236 
Q 2216 1309 1875 1350 
L 1678 1375 
Q 931 1469 631 1722 
Q 331 1975 331 2491 
Q 331 3047 712 3315 
Q 1094 3584 1881 3584 
Q 2191 3584 2531 3537 
Q 2872 3491 3272 3391 
z
" transform="scale(0.015625)"/>
     </defs>
     <use xlink:href="#DejaVuSans-Bold-54"/>
     <use xlink:href="#DejaVuSans-Bold-6f" transform="translate(54.962891 0)"/>
     <use xlink:href="#DejaVuSans-Bold-70" transform="translate(123.664062 0)"/>
     <use xlink:href="#DejaVuSans-Bold-20" transform="translate(195.246094 0)"/>
     <use xlink:href="#DejaVuSans-Bold-31" transform="translate(230.060547 0)"/>
     <use xlink:href="#DejaVuSans-Bold-30" transform="translate(299.640625 0)"/>
     <use xlink:href="#DejaVuSans-Bold-20" transform="translate(369.220703 0)"/>
     <use xlink:href="#DejaVuSans-Bold-4b" transform="translate(404.035156 0)"/>
     <use xlink:href="#DejaVuSans-Bold-45" transform="translate(481.525391 0)"/>
     <use xlink:href="#DejaVuSans-Bold-47" transform="translate(549.835938 0)"/>
     <use xlink:href="#DejaVuSans-Bold-47" transform="translate(631.916016 0)"/>
     <use xlink:href="#DejaVuSans-Bold-20" transform="translate(713.996094 0)"/>
     <use xlink:href="#DejaVuSans-Bold-50" transform="translate(748.810547 0)"/>
     <use xlink:href="#DejaVuSans-Bold-61" transform="translate(819.476562 0)"/>
     <use xlink:href="#DejaVuSans-Bold-74" transform="translate(886.957031 0)"/>
     <use xlink:href="#DejaVuSans-Bold-68" transform="translate(934.759766 0)"/>
     <use xlink:href="#DejaVuSans-Bold-77" transform="translate(1005.951172 0)"/>
     <use xlink:href="#DejaVuSans-Bold-61" transform="translate(1098.333984 0)"/>
     <use xlink:href="#DejaVuSans-Bold-79" transform="translate(1162.689453 0)"/>
     <use xlink:href="#DejaVuSans-Bold-73" transform="translate(1227.875 0)"/>
    </g>
   </g>
  </g>
 </g>
 <defs>
  <clipPath id="p3047032881">
   <rect x="68.229687" y="23.077969" width="637.31" height="434.44"/>
  </clipPath>
 </defs>
</svg>
